PathFileType	4	(X/Y/Z)	D:\TRACE\v60_Jaco2_6-2-23\JustBodyDRS_Motion1_2-platform.trc
DataRate	CameraRate	NumFrames	NumMarkers	Units	OrigDataRate	OrigDataStartFrame	OrigNumFrames
100.00	100.00	      55	5	mm	100.00	2608	      6954
Frame#	Time	Left_Front			Right_Front			Left_Aft			Right_Aft			Post			
		X1	Y1	Z1	X2	Y2	Z2	X3	Y3	Z3	X4	Y4	Z4	X5	Y5	Z5	

2608	26.070	-778.02936	11.34261	-638.53461	791.73651	12.78531	-643.95471	-686.43787	5.78168	496.65701	756.04297	5.09731	506.38605	8.28580	1311.99341	-956.98401	
2609	26.080	-779.09149	10.75242	-638.66888	790.90808	12.10311	-643.90002	-687.24261	6.25140	496.33298	755.23065	5.54123	506.23370	7.22531	1311.19702	-957.90649	
2610	26.090	-779.86737	10.49645	-638.77759	790.12683	11.68182	-644.04236	-688.19635	6.42429	496.22934	754.46466	5.79287	506.29916	6.24338	1310.40967	-958.85211	
2611	26.100	-780.66718	9.75858	-638.75787	789.19971	11.30708	-644.16992	-689.01312	6.71880	496.24109	753.32593	6.27814	506.15283	5.58505	1309.79297	-959.70197	
2612	26.110	-781.42023	9.40931	-639.00775	788.43665	10.92963	-644.30908	-689.58539	7.14647	496.18732	752.77789	6.47691	506.06522	4.78092	1309.00928	-960.68701	
2613	26.120	-782.53040	9.19335	-639.05267	787.50293	10.33467	-644.29919	-690.66498	7.69862	496.06204	751.96747	6.95182	506.04593	3.74197	1308.54053	-961.34583	
2614	26.130	-783.44727	8.55416	-639.36188	786.65332	9.84282	-644.64783	-691.71802	7.90805	496.04868	751.10114	7.22232	505.92328	2.86284	1307.94604	-962.13177	
2615	26.140	-784.10309	8.18628	-639.52826	785.81622	9.43252	-644.72211	-692.27301	7.92272	495.98322	749.96619	7.59350	506.08603	1.97391	1307.13196	-962.93921	
2616	26.150	-784.98895	7.57528	-639.39490	784.92554	8.95469	-644.53705	-693.23187	8.24773	496.00766	749.18451	7.77414	505.64340	1.14066	1306.34045	-963.77100	
2617	26.160	-785.87866	7.15582	-639.26538	783.98230	8.40759	-644.69940	-694.31543	8.74870	495.76468	748.04437	8.13031	505.37918	-0.26556	1305.70386	-964.77228	
2618	26.170	-787.06281	6.72842	-639.51233	783.30847	8.07699	-644.80359	-694.97571	8.99766	495.61880	747.42944	8.46324	505.20337	-0.91985	1305.14844	-966.09204	
2619	26.180	-787.87671	6.15464	-639.86450	782.24475	7.63180	-644.79547	-695.86407	9.16869	495.41684	746.61847	8.78174	505.06451	-1.71402	1304.60388	-967.22870	
2620	26.190	-788.54712	5.61021	-640.01459	781.16034	7.14816	-645.18207	-696.99384	9.62510	495.41547	745.17651	9.05548	505.21539	-2.77405	1303.72778	-968.35602	
2621	26.200	-789.27246	5.27234	-639.51099	780.26666	6.62343	-645.22736	-697.54431	9.65682	495.33167	744.66846	9.41621	505.10510	-3.47089	1303.07654	-969.69836	
2622	26.210	-790.59253	4.97128	-639.81824	779.43140	6.36906	-645.22797	-698.77783	10.09681	495.03912	743.59326	9.86267	504.97333	-4.63340	1302.26758	-970.79871	
2623	26.220	-791.55017	4.64566	-640.20477	778.44153	5.97529	-645.30835	-699.61450	10.36611	494.90710	742.90369	10.16250	504.83188	-5.46804	1301.59521	-971.59296	
2624	26.230	-792.35370	4.17451	-640.24066	777.52472	5.37254	-645.61841	-700.40503	10.76520	494.97598	742.01978	10.58531	504.61972	-6.31680	1301.24548	-972.50867	
2625	26.240	-793.20416	3.48364	-640.24591	776.55878	4.93064	-645.78937	-701.71204	11.46493	494.73624	740.53394	10.72851	504.55496	-6.91011	1300.28491	-973.36090	
2626	26.250	-794.38275	2.88407	-640.13153	775.48065	4.37817	-645.70349	-702.66864	11.64484	494.84509	739.21588	10.73718	504.84402	-8.24344	1299.63403	-974.04120	
2627	26.260	-795.38995	2.59841	-640.43085	774.63220	3.85468	-645.83661	-703.59857	11.92127	494.71875	738.13141	10.94702	504.66705	-8.98121	1298.88013	-975.03851	
2628	26.270	-796.05389	2.28086	-640.48260	773.77356	3.38610	-645.89655	-704.45245	12.25441	494.64505	737.59033	11.55331	504.50580	-10.07691	1298.26770	-975.74506	
2629	26.280	-797.03888	1.74509	-640.56055	772.74213	3.27236	-646.05151	-705.31610	12.31596	494.68076	737.05640	11.90121	504.31909	-10.77104	1297.80725	-976.68402	
2630	26.290	-798.07391	1.38338	-640.54517	771.89111	2.96753	-645.93988	-706.22559	12.80516	494.35223	735.85626	12.28697	504.20880	-12.32607	1297.16858	-977.52124	
2631	26.300	-799.04675	1.08722	-640.81445	770.76172	2.64932	-646.32220	-707.20117	13.23067	494.14951	735.07019	12.45257	504.06482	-13.17389	1296.52673	-978.32520	
2632	26.310	-800.04437	0.53818	-641.19763	770.06506	2.06650	-646.22174	-708.48834	13.68313	494.00977	734.13391	12.76554	503.94791	-13.85105	1295.69641	-979.66913	
2633	26.320	-800.84229	-0.12395	-641.08398	768.90674	1.48120	-646.25818	-708.96692	13.49264	494.14114	732.77161	13.15331	503.91318	-14.70632	1294.91345	-980.63434	
2634	26.330	-802.05792	-0.63305	-640.98535	767.99500	0.84187	-646.28430	-710.07788	13.90603	494.00449	732.23309	13.59459	503.71933	-16.35934	1294.42798	-981.58185	
2635	26.340	-802.94635	-0.92154	-641.07538	766.94604	0.64889	-646.60498	-711.34711	14.58160	493.71075	731.16071	13.81007	503.68945	-16.96415	1293.82996	-982.46637	
2636	26.350	-804.03052	-1.46510	-641.41083	766.13745	0.38676	-646.54761	-712.26587	15.05837	493.50989	730.37323	14.15422	503.62491	-17.71644	1293.23438	-984.10028	
2637	26.360	-804.75452	-2.01002	-641.51355	765.04584	-0.19184	-646.63226	-713.28784	15.18674	493.48465	729.56812	14.38316	503.51312	-18.50223	1292.72681	-984.91162	
2638	26.370	-805.92303	-2.27222	-640.97046	763.99530	-0.65438	-646.69867	-714.21625	15.33922	493.36948	728.23730	14.72076	503.49506	-19.68580	1291.86902	-986.01660	
2639	26.380	-806.81531	-2.55869	-641.34973	763.14191	-0.87285	-646.88849	-715.09705	15.55222	493.37805	727.47583	14.89011	503.38885	-20.71741	1291.36353	-986.71301	
2640	26.390	-807.84155	-2.63404	-641.80908	762.08099	-1.24143	-646.87030	-716.07587	15.87527	493.35120	726.65460	15.33823	503.32764	-21.55759	1290.83582	-987.60468	
2641	26.400	-808.56268	-2.88670	-641.78479	761.11694	-1.50730	-646.94940	-717.22168	16.25646	493.16348	725.40289	15.37096	503.00339	-22.16966	1290.38977	-987.93707	
2642	26.410	-809.82764	-3.25235	-641.54163	760.09473	-1.85027	-647.11682	-718.00415	16.35002	493.05679	724.72412	15.57186	502.93628	-23.85757	1290.04541	-988.90393	
2643	26.420	-810.65033	-3.71486	-641.65875	759.32996	-2.11269	-647.12085	-719.18121	16.58628	492.99860	723.21698	15.90099	502.87222	-24.77817	1289.49792	-989.23737	
2644	26.430	-811.70959	-4.10329	-642.06927	758.19135	-2.47610	-647.17859	-720.03644	16.79401	492.89478	722.73309	16.12212	503.19000	-25.79153	1289.01831	-989.57422	
2645	26.440	-812.70776	-4.46182	-642.01410	757.16632	-3.06331	-647.27222	-721.12024	17.51013	492.69455	721.91541	16.51279	502.80978	-26.41555	1288.21912	-989.71411	
2646	26.450	-813.59961	-4.86605	-641.72479	756.29932	-3.28660	-647.34143	-721.77844	16.94951	493.03601	720.50049	16.71873	502.93127	-27.60566	1287.67041	-990.31757	
2647	26.460	-814.53021	-5.51917	-641.80658	755.42993	-3.56951	-647.30060	-722.47955	17.14334	493.00256	719.85541	17.03119	502.80792	-28.63990	1287.08105	-990.90436	
2648	26.470	-815.36084	-5.64313	-642.21326	754.34741	-4.01099	-647.42841	-723.48962	17.42761	492.88663	718.67102	17.17191	502.49387	-29.11486	1286.52576	-991.81854	
2649	26.480	-816.26740	-6.03743	-642.10986	753.35309	-4.51802	-647.65002	-724.38446	17.57520	492.92026	717.95245	17.47932	502.44260	-30.26501	1286.40784	-993.08240	
2650	26.490	-817.61548	-6.33674	-642.15985	752.48975	-4.69036	-647.62744	-725.39331	17.86152	492.77408	716.72577	17.75859	502.37680	-31.32391	1285.81226	-994.16718	
2651	26.500	-818.19128	-6.59321	-642.20923	751.47803	-4.97272	-647.60596	-726.80518	18.54771	492.45032	715.77240	17.77006	502.21945	-32.30464	1285.14392	-994.84619	
2652	26.510	-819.39575	-7.07371	-642.29272	750.60095	-5.36855	-647.75079	-727.73010	18.80387	492.39706	714.99365	18.07136	502.19086	-33.21595	1284.63477	-996.27509	
2653	26.520	-820.22272	-7.07499	-642.66583	749.53668	-5.78112	-647.98615	-728.53796	18.99311	492.32935	714.19189	18.30694	502.11868	-33.88514	1284.14551	-997.30957	
2654	26.530	-821.24109	-7.24696	-642.50714	748.93365	-5.96548	-647.75220	-729.49866	19.05449	492.23438	713.07983	18.51898	502.09833	-34.89984	1283.55542	-998.16119	
2655	26.540	-822.14227	-7.76953	-642.32404	747.74756	-6.17429	-647.96753	-730.33020	19.22684	492.10196	712.12708	18.83074	502.08978	-35.79156	1283.14905	-998.64679	
2656	26.550	-822.84637	-7.93521	-642.71381	746.92200	-6.48090	-648.02692	-731.39398	19.56688	492.02451	711.35968	18.90108	501.98801	-36.51440	1282.66418	-999.20081	
2657	26.560	-823.91888	-8.33394	-642.80463	746.01862	-6.98206	-648.14264	-732.27686	19.73792	492.01767	710.39990	19.19569	501.92810	-37.38490	1282.27368	-999.86798	
2658	26.570	-825.01892	-8.62200	-642.78711	745.01416	-7.21416	-648.01953	-733.03357	19.81085	491.97974	709.94849	19.66277	501.85858	-38.70341	1281.92395	-999.80151	
2659	26.580	-825.87817	-9.06781	-642.67279	744.10437	-7.37523	-648.10431	-734.06476	19.96060	492.01199	708.26233	19.58069	501.94165	-39.56034	1281.66626	-1000.32581	
2660	26.590	-826.54791	-9.30577	-642.73828	743.30975	-7.58288	-648.15906	-734.88214	20.18397	492.05676	707.46167	19.74109	501.86743	-40.40727	1281.21423	-1000.57471	
2661	26.600	-827.45233	-9.78223	-642.87158	742.60541	-8.02397	-648.28705	-735.71265	20.40350	492.06256	706.69922	19.86975	501.79489	-41.43856	1280.81372	-1000.52264	
2662	26.610	-828.63483	-9.73794	-642.85315	741.38843	-8.21448	-648.23138	-736.63623	20.63944	491.90677	705.64038	19.89327	501.85040	-42.38307	1280.26880	-1000.73486	
